<?xml version="1.0" standalone="no"?>
<!DOCTYPE svg PUBLIC "-//W3C//DTD SVG 20010904//EN"
 "http://www.w3.org/TR/2001/REC-SVG-20010904/DTD/svg10.dtd">
<svg version="1.0" xmlns="http://www.w3.org/2000/svg"
 width="512.000000pt" height="512.000000pt" viewBox="0 0 512.000000 512.000000"
 preserveAspectRatio="xMidYMid meet">

<g transform="translate(0.000000,512.000000) scale(0.100000,-0.100000)"
fill="#176AE7" stroke="none">
<path d="M2374 5109 c-994 -72 -1859 -719 -2208 -1653 -214 -570 -214 -1222 0
-1792 263 -704 834 -1266 1539 -1514 103 -36 327 -96 398 -106 l47 -6 0 921 0
921 -335 0 -335 0 0 335 0 335 335 0 335 0 0 299 c0 353 12 516 46 647 85 329
296 546 621 636 69 20 103 22 288 22 202 1 327 -11 488 -46 l47 -10 0 -338 0
-338 -287 -4 c-319 -5 -356 -11 -426 -69 -85 -70 -97 -131 -97 -504 l0 -295
385 0 c301 0 385 -3 385 -12 0 -7 -23 -158 -52 -336 l-52 -322 -333 0 -333 0
0 -930 c0 -879 1 -930 18 -930 9 0 71 9 137 20 1065 174 1921 1030 2095 2094
123 750 -81 1496 -568 2076 -444 529 -1079 849 -1787 900 -155 11 -189 11
-351 -1z"/>
</g>
</svg>
