<?xml version="1.0" standalone="no"?>
<!DOCTYPE svg PUBLIC "-//W3C//DTD SVG 20010904//EN"
 "http://www.w3.org/TR/2001/REC-SVG-20010904/DTD/svg10.dtd">
<svg version="1.0" xmlns="http://www.w3.org/2000/svg"
 width="512.000000pt" height="512.000000pt" viewBox="0 0 512.000000 512.000000"
 preserveAspectRatio="xMidYMid meet">

<g transform="translate(0.000000,512.000000) scale(0.100000,-0.100000)"
fill="#000000" stroke="none">
<path d="M2465 5113 c-645 -24 -1252 -289 -1711 -747 -413 -414 -666 -939
-734 -1526 -15 -122 -15 -438 0 -560 68 -587 321 -1112 734 -1526 361 -361
811 -602 1303 -698 189 -37 297 -47 503 -47 447 0 828 95 1215 305 668 361
1144 1005 1289 1743 37 189 47 297 47 503 0 447 -95 828 -305 1215 -360 667
-999 1140 -1738 1289 -183 36 -421 56 -603 49z m1375 -1159 c68 -31 133 -93
168 -159 37 -72 43 -197 12 -277 -28 -75 -98 -149 -175 -185 -52 -24 -72 -28
-150 -28 -71 0 -100 5 -137 22 -97 44 -184 154 -202 253 l-6 35 -240 56 -240
56 -19 -61 c-98 -303 -152 -478 -148 -482 2 -3 44 -9 93 -14 264 -30 516 -104
719 -213 l79 -43 77 40 c66 33 89 40 157 44 307 18 521 -276 412 -563 -17 -43
-40 -76 -88 -125 l-65 -65 -2 -95 c-5 -207 -95 -402 -260 -565 -232 -228 -583
-381 -1000 -436 -135 -18 -438 -15 -578 5 -615 88 -1073 396 -1198 806 -18 58
-23 100 -24 183 l0 108 -61 62 c-210 216 -113 580 178 668 106 32 203 24 303
-25 l76 -37 53 30 c225 127 562 217 875 234 l45 2 113 355 c115 363 124 383
177 395 11 3 152 -25 311 -63 l290 -69 15 21 c8 12 33 39 56 62 101 100 252
127 384 68z"/>
<path d="M3634 3780 c-11 -4 -34 -24 -52 -44 -27 -31 -32 -44 -32 -90 0 -94
70 -162 159 -153 107 11 171 123 123 217 -33 67 -125 100 -198 70z"/>
<path d="M2000 2561 c-110 -36 -170 -115 -170 -226 0 -126 98 -218 231 -217
124 0 219 96 219 222 0 119 -88 215 -208 225 -26 3 -58 1 -72 -4z"/>
<path d="M3012 2561 c-49 -13 -109 -56 -139 -102 -21 -33 -28 -56 -31 -108 -4
-81 22 -139 86 -188 116 -88 279 -49 346 84 20 41 21 132 0 181 -41 98 -160
158 -262 133z"/>
<path d="M2025 1808 c-32 -17 -45 -39 -45 -79 0 -31 7 -43 46 -79 109 -101
284 -150 534 -150 250 0 425 49 534 150 38 35 46 49 46 77 0 46 -13 68 -49 83
-40 16 -70 8 -120 -34 -45 -37 -126 -72 -205 -87 -207 -39 -487 -8 -588 66
-94 69 -112 76 -153 53z"/>
</g>
</svg>
